<svg aria-hidden="true" style="position: absolute; width: 0; height: 0; overflow: hidden;" version="1.1" xmlns="http://www.w3.org/2000/svg" xmlns:xlink="http://www.w3.org/1999/xlink">
<defs>
<symbol id="star-hf" viewBox="0 0 32 32">
<path fill="#3c3c43" style="fill: var(--color1, #3c3c43)" opacity="0.6" d="M6.103 30.135c0.587 0.458 1.332 0.301 2.22-0.344l7.577-5.572 7.591 5.572c0.888 0.645 1.618 0.802 2.22 0.344 0.587-0.444 0.716-1.174 0.358-2.22l-2.994-8.909 7.648-5.5c0.888-0.63 1.246-1.289 1.017-2.005-0.229-0.688-0.902-1.031-2.005-1.017l-9.381 0.057-2.85-8.952c-0.344-1.060-0.859-1.59-1.604-1.59-0.73 0-1.246 0.53-1.59 1.59l-2.85 8.952-9.382-0.057c-1.103-0.014-1.776 0.329-2.005 1.017-0.243 0.716 0.129 1.375 1.017 2.005l7.648 5.5-2.994 8.909c-0.358 1.046-0.229 1.776 0.358 2.22zM8.165 27.299c-0.029-0.029-0.014-0.043 0-0.129l2.85-8.193c0.2-0.559 0.086-1.003-0.415-1.346l-7.133-4.927c-0.072-0.043-0.086-0.072-0.072-0.115s0.043-0.043 0.129-0.043l8.665 0.158c0.587 0.014 0.96-0.229 1.146-0.816l2.492-8.293c0.014-0.086 0.043-0.115 0.072-0.115 0.043 0 0.072 0.029 0.086 0.115l2.492 8.293c0.186 0.587 0.559 0.831 1.146 0.816l8.665-0.158c0.086 0 0.115 0 0.129 0.043s-0.014 0.072-0.072 0.115l-7.133 4.927c-0.501 0.344-0.616 0.788-0.415 1.346l2.85 8.193c0.014 0.086 0.029 0.1 0 0.129-0.029 0.043-0.072 0.014-0.129-0.029l-6.889-5.257c-0.458-0.358-0.988-0.358-1.447 0l-6.889 5.257c-0.057 0.043-0.1 0.071-0.129 0.029z"></path>
<path fill="#808084" style="fill: var(--color2, #808084)" d="M6.103 30.135c0.587 0.458 1.332 0.301 2.22-0.344l7.577-5.572 0.1-1.553c0 0 0 0 0-1.333s0-1.333 0-2.667v-4c0-1.333 0 0 0-1.333 0-2.84 0-1.333 0-2.667v-9.077c0-1.59 0-1.59-0.1-1.59-0.73 0-1.246 0.53-1.59 1.59l-2.85 8.952-9.382-0.057c-1.103-0.014-1.776 0.329-2.005 1.017-0.243 0.716 0.129 1.375 1.017 2.005l7.648 5.5-2.994 8.909c-0.358 1.046-0.229 1.776 0.358 2.22z"></path>
</symbol>
<symbol id="starfill" viewBox="0 0 32 32">
<path d="M6.103 30.135c0.587 0.458 1.332 0.301 2.22-0.344l7.577-5.572 7.591 5.572c0.888 0.645 1.618 0.802 2.22 0.344 0.587-0.444 0.716-1.174 0.358-2.22l-2.994-8.909 7.648-5.5c0.888-0.63 1.246-1.289 1.017-2.005-0.229-0.688-0.902-1.031-2.005-1.017l-9.381 0.057-2.85-8.952c-0.344-1.060-0.859-1.59-1.604-1.59-0.73 0-1.246 0.53-1.59 1.59l-2.85 8.952-9.382-0.057c-1.103-0.014-1.776 0.329-2.005 1.017-0.243 0.716 0.129 1.375 1.017 2.005l7.648 5.5-2.994 8.909c-0.358 1.046-0.229 1.776 0.358 2.22z"></path>
</symbol>
</defs>
</svg>
